<svg width="252.8" height="252.48" xmlns="http://www.w3.org/2000/svg">

 <g>
  <title>Layer 1</title>
  <path id="svg_1" d="m122.48421,10.23884c-19.34214,2.42586 -33.25916,22.09817 -28.98454,40.97049c7.40336,32.67928 51.5701,36.85772 64.81476,6.1317c10.27407,-23.83595 -9.89766,-50.35486 -35.83022,-47.10219m-58.16514,17.95025c-8.72681,4.43554 -23.68797,18.66885 -33.05199,31.44462c-6.67828,9.11154 -5.24478,15.15168 4.15809,17.51003c24.88749,6.24176 47.26496,-15.06845 42.08677,-40.08171c-1.78864,-8.6408 -6.89377,-12.07473 -13.19287,-8.87293m117.16912,0.03144c-6.38788,3.18331 -8.07942,18.9648 -3.17961,29.6717c5.8228,12.72582 17.31859,20.16247 31.23005,20.20039c11.40145,0.03237 17.00229,-3.1907 17.01339,-9.79037c0.01017,-5.48339 -13.90499,-22.50972 -26.63174,-32.5868c-11.04169,-8.74253 -13.73205,-9.83662 -18.4321,-7.49492m-143.4152,65.03857c-25.47754,4.93588 -36.6487,34.54099 -20.61565,54.63687c17.43419,21.85401 52.35806,14.68649 59.71148,-12.25508c6.49054,-23.77953 -14.97966,-47.0541 -39.09583,-42.3818m81.94097,0.21086c-26.25533,5.6776 -36.29171,37.43297 -17.89014,56.60494c17.28714,18.01129 46.49642,12.68143 56.29881,-10.27314c10.59961,-24.81998 -11.973,-52.04917 -38.40868,-46.33179m84.90047,-0.49202c-34.45405,5.562 -40.37211,51.8235 -8.34947,65.27718c24.91431,10.46828 52.09726,-11.9508 46.49272,-38.34671c-3.6781,-17.32413 -21.165,-29.67077 -38.14325,-26.93047m-165.54666,82.60131c-12.91634,1.90795 -15.64,8.06647 -8.11086,18.33591c12.07566,16.47051 30.31446,32.35281 37.15089,32.35281c5.51206,0 8.09052,-3.15186 9.44263,-11.54387c3.60411,-22.371 -16.13294,-42.44746 -38.48266,-39.14485m82.51808,0.03052c-27.28098,3.8233 -38.80821,38.18024 -19.34121,57.64723c15.41156,15.41156 40.81974,13.05876 52.63367,-4.87392c16.29664,-24.73767 -3.98144,-56.88146 -33.29245,-52.77332m82.77518,-0.0037c-20.25218,3.2203 -33.40991,23.2237 -28.09854,42.71659c2.46748,9.0542 8.38184,10.49603 17.15951,4.18121c12.93669,-9.30761 28.31033,-25.46089 32.13547,-33.76782c1.64344,-3.56711 0.28948,-8.53536 -2.87163,-10.54042c-3.36642,-2.13546 -12.79981,-3.46816 -18.32481,-2.58956" fill="#84e3b4"/>
 </g>
</svg>